<?xml version="1.0" encoding="UTF-8" standalone="no"?>
<!DOCTYPE svg PUBLIC "-//W3C//DTD SVG 1.1//EN" "http://www.w3.org/Graphics/SVG/1.1/DTD/svg11.dtd">
<svg width="100%" height="100%" viewBox="0 0 2560 1440" version="1.1" xmlns="http://www.w3.org/2000/svg" xmlns:xlink="http://www.w3.org/1999/xlink" xml:space="preserve" xmlns:serif="http://www.serif.com/" style="fill-rule:evenodd;clip-rule:evenodd;stroke-linejoin:round;stroke-miterlimit:2;">
    <rect id="Artboard1" x="0" y="0" width="2560" height="1440" style="fill:none;"/>
    <clipPath id="_clip1">
        <rect id="Artboard11" serif:id="Artboard1" x="0" y="0" width="2560" height="1440"/>
    </clipPath>
    <g clip-path="url(#_clip1)">
        <g>
            <rect x="0" y="0" width="2560" height="1440" style="fill:url(#_Linear2);"/>
            <g transform="matrix(0.975779,0,0,1.001832,33.004198,25.857118)">
                <ellipse cx="1362.608" cy="897" rx="289" ry="273" style="fill:rgb(251,244,174);"/>
            </g>
            <path d="M0,1023L0,1440L2560,1440L2560,1131C2560,1131 2187.608,1171 2078.608,1151C1969.607,1131 1699.607,1066 1625.608,1048C1551.608,1030 1461.786,1022.256 1403.608,1006C1335.607,987 1149.405,920.416 1067.608,908C955.608,891 775.252,893.889 577.608,923C441.304,943.076 331.608,957 262.608,980C211.519,997.029 87.666,1020.149 0,1023Z" style="fill:rgb(221,239,199);"/>
            <path d="M0,1110L0,1440L2560,1440L2560,1001C2502.768,1019.833 2366.607,1057 2294.607,1073C2252.677,1082.318 2204.608,1092 2150.608,1084C2096.607,1076 1872.608,1026 1763.608,1021C1654.607,1016 1443.608,1049 1392.608,1062C1341.607,1075 1258.607,1122 1184.608,1119C1110.608,1116 1038.608,1096 996.608,1088C954.608,1080 759.402,1062.726 718.608,1057C661.607,1049 578.608,1061 506.608,1073C439.845,1084.127 318.608,1121 273.608,1131C228.608,1141 168.608,1143 110.608,1129C78.003,1121.13 0,1110 0,1110Z" style="fill:rgb(81,118,77);"/>
            <path d="M617.298,1174C677.656,1159.936 989.229,1091.862 1230,1079.333C1537.813,1063.316 1769.298,1155.333 1901.298,1191.333C2012.089,1221.549 2072.615,1225.333 2123.281,1209.333C2169.846,1194.629 2273.948,1180.667 2327.948,1180C2370.799,1179.471 2452.428,1184.742 2475.281,1182C2508.615,1178 2560,1183.333 2560,1183.333L2560,1440L1024.615,1440C1024.615,1440 41.217,1439.333 21.217,1440C1.217,1440.667 85.217,1316 301.884,1249.333C388.283,1222.749 548.632,1190 617.298,1174Z" style="fill:rgb(60,99,70);"/>
            <path d="M0,1229.333C0,1229.333 234.499,1214.472 342.667,1217.333C468.667,1220.667 548,1245.334 608,1262C672.516,1279.921 836.667,1230.667 986,1228C1015.006,1227.482 1111.655,1228.148 1154.872,1231.273C1298.684,1241.669 1389.336,1255.001 1480.667,1270.667C1590.718,1289.544 1714.063,1328.008 1770,1362C1805.912,1383.823 1837.944,1411.931 1857.957,1440L-0,1440.003L0,1229.333Z" style="fill:rgb(47,85,67);"/>
            <path d="M80.968,360.5C85.73,364.523 122.149,368.322 188.302,370.5C269.302,373.167 309.968,355.5 348.302,357.5C379.324,359.119 430.96,364.928 472.968,365.5C521.968,366.167 584.854,359.95 609.635,356.5C635.968,352.833 675.298,352.709 678.968,349.5C682.231,346.648 618.968,345.5 587.968,344.833C558.975,344.21 528.942,345.088 517.968,343.833C506.302,342.5 522.635,338.5 511.968,334.167C504.732,331.227 449.202,328.214 412.968,325.5C378.838,322.943 341.259,319.7 350.302,314.5C361.63,307.985 376.254,305.124 371.968,299.5C366.635,292.5 310.968,285.833 281.968,285.833C252.968,285.833 203.635,280.5 188.635,287.5C173.635,294.5 202.302,309.167 197.302,318.167C192.695,326.46 134.635,333.833 118.635,337.833C102.635,341.833 71.771,352.728 80.968,360.5Z" style="fill:rgb(184,203,139);"/>
            <path d="M337.635,600.833C334.886,602.888 391.968,609.5 412.302,612.833C416.393,613.504 421.228,614.131 426.196,614.721C441.002,616.478 456.987,617.905 457.968,619.167C460.302,622.167 416.131,630.677 394.968,635.5C368.106,641.622 348.53,645.469 338.635,646.5C324.46,647.977 304.635,651.5 306.635,653.167C309.719,655.736 335.968,660.167 349.635,659.833C363.302,659.5 408.968,660.833 420.302,662.167C431.635,663.5 449.352,666.438 454.635,667.167C464.302,668.5 489.333,668.438 504.302,669.833C516.033,670.926 539.691,675.97 545.302,676.833C558.302,678.833 596.635,678.833 632.635,676.167C655.659,674.461 737.63,672.402 765.635,672.833C808.968,673.5 900.302,669.167 942.302,668.833C979.307,668.54 1054.302,663.167 1057.635,661.833C1060.968,660.5 1015.32,658.508 976.302,656.5C930.968,654.167 833.59,651.486 800.968,649.5C762.635,647.167 680.878,648.167 679.09,644.167C676.568,638.525 699.433,634.873 700.968,629.5C701.635,627.167 682.661,623.705 669.968,621.167C653.302,617.833 633.635,616.5 614.302,615.833C594.968,615.167 554.468,609.469 538.968,605.833C511.968,599.5 470.968,591.167 451.635,590.5C432.302,589.833 410.302,588.167 382.968,591.167C356.325,594.091 342.448,597.235 337.635,600.833Z" style="fill:rgb(185,202,139);"/>
            <path d="M2078.468,669.833C2070.92,676.998 2109.135,681.833 2118.469,686.5C2123.386,688.958 2088.469,695.167 2053.135,696.5C2017.802,697.833 1859.135,701.833 1829.802,704.5C1805.236,706.733 1743.135,706.5 1737.802,709.833C1732.469,713.167 1808.469,718.833 1833.802,720C1859.135,721.167 1966.357,725.583 2026.468,727.333C2079.672,728.882 2160.388,731.778 2194.469,730.5C2247.802,728.5 2325.618,721.825 2357.135,721C2388.356,720.183 2434.309,714.289 2445.135,710.5C2458.468,705.833 2465.802,695.833 2455.135,695.167C2444.468,694.5 2419.135,691.833 2383.802,686.5C2348.468,681.167 2286.472,669.297 2264.469,669.833C2237.135,670.5 2211.135,667.833 2203.135,663.167C2195.135,658.5 2167.802,647.833 2140.469,651.833C2113.135,655.833 2085.656,663.01 2078.468,669.833Z" style="fill:rgb(182,202,139);"/>
            <path d="M2560,245.833L2560,317.167C2539.078,323.833 2502.468,324.5 2474.468,325.833C2446.469,327.167 2381.135,329.167 2375.135,329.167C2369.135,329.167 2410.469,341.167 2423.135,347.167C2435.802,353.167 2443.135,358.5 2426.469,361.833C2409.802,365.167 2351.802,371.833 2331.802,369.833C2311.802,367.833 2264.468,358.5 2243.802,360.5C2223.135,362.5 2145.802,361.167 2131.135,359.833C2116.469,358.5 2092.468,358.5 2088.468,354.5C2084.469,350.5 2113.802,350.5 2139.135,347.833C2161.765,345.451 2232.469,337.833 2273.135,329.167C2286.577,326.302 2296.469,321.833 2282.469,317.167C2268.468,312.5 2232.469,298.5 2211.802,297.167C2191.135,295.833 2161.117,305.695 2131.135,309.167C2102.628,312.468 2031.202,307.883 2003.135,305.167C1961.802,301.167 1878.468,293.833 1869.135,291.833C1859.802,289.833 1881.667,288.7 1893.802,287.833C1912.469,286.5 2009.802,283.167 2038.468,282.5C2063.138,281.926 2103.802,281.833 2086.469,276.5C2073.472,272.501 2046.344,272.517 2042.469,269.833C2033.802,263.833 2084.971,257.471 2098.891,255.833C2121.557,253.167 2169.802,250.5 2207.135,251.167C2234.537,251.656 2280.478,250.21 2298.469,247.167C2323.01,243.015 2367.802,231.833 2416.469,233.833C2443.981,234.964 2530.078,241.944 2560,245.833Z" style="fill:rgb(186,200,139);"/>
        </g>
    </g>
    <defs>
        <linearGradient id="_Linear2" x1="0" y1="0" x2="1" y2="0" gradientUnits="userSpaceOnUse" gradientTransform="matrix(2.999878,1124.499962,-1124.499962,2.999878,905.968326,0)"><stop offset="0" style="stop-color:rgb(204,229,171);stop-opacity:1"/><stop offset="1" style="stop-color:rgb(243,238,165);stop-opacity:1"/></linearGradient>
    </defs>
</svg>
