<?xml version="1.0" encoding="UTF-8" standalone="no"?><!DOCTYPE svg PUBLIC "-//W3C//DTD SVG 1.1//EN" "http://www.w3.org/Graphics/SVG/1.1/DTD/svg11.dtd"><svg width="100%" height="100%" viewBox="0 0 2560 1440" version="1.1" xmlns="http://www.w3.org/2000/svg" xmlns:xlink="http://www.w3.org/1999/xlink" xml:space="preserve" xmlns:serif="http://www.serif.com/" style="fill-rule:evenodd;clip-rule:evenodd;stroke-linejoin:round;stroke-miterlimit:2;"><rect id="Desktop" x="0" y="0" width="2560" height="1440" style="fill:none;"/><clipPath id="_clip1"><rect id="Desktop1" serif:id="Desktop" x="0" y="0" width="2560" height="1440"/></clipPath><g clip-path="url(#_clip1)"><g id="Desktop---Level-0" serif:id="Desktop - Level-0"><g id="Level-0"><rect x="-1.2518" y="0" width="2561.2518" height="1440" style="fill:url(#_Radial2);fill-rule:nonzero;"/><circle cx="1279.3621" cy="525.7887" r="338.75" style="fill:#fdf8f3;"/><g><path d="M-0.4843,631.6323l0,808.3677l2560,0l0,-962.9003c0,0 -59.9477,-5.3287 -115.0111,12.4337c-55.0634,17.7624 -181.02,103.0247 -292.191,111.9028c-69.9902,5.5894 -195.6347,-30.3736 -251.3373,-27.5316c-87.0356,4.4406 -178.767,54.1829 -273.5404,67.497c-62.2945,8.7513 -96.8049,-5.3288 -150.092,-6.2169c-53.2871,-0.8881 -104.8935,15.7403 -174.9592,-1.7762c-78.1544,-19.5386 -184.7004,-55.0634 -266.4354,-56.8396c-75.4722,-1.6401 -213.6523,29.3579 -291.3026,20.4267c-85.8738,-9.877 -214.9245,-50.6226 -288.6383,-51.5107c-61.3336,-0.739 -233.575,44.4058 -285.974,58.6157c-52.399,14.2099 -170.5187,27.5317 -170.5187,27.5317Z" style="fill:#e0c4bc;"/><path d="M-1.736,736.4302l0,703.5698l2563.4721,0.7907l-2.6642,-745.5426c0,0 -41.6259,14.9368 -117.2317,12.7624c-96.7689,-2.7831 -159.8614,-32.8604 -278.8691,-30.196c-119.0078,2.6644 -289.4699,91.1802 -397.8767,96.8049c-157.9349,8.1944 -255.6475,-81.2835 -357.0234,-76.3781c-110.1267,5.3288 -232.906,75.3292 -436.066,79.9305c-173.4138,3.9276 -423.211,-98.1512 -538.1995,-115.4553c-114.9274,-17.2948 -222.0295,-0.0001 -314.3937,31.9722c-57.8663,20.0307 -121.1477,41.7415 -121.1477,41.7415Z" style="fill:#bba998;"/><path d="M2559.5157,897.1795l0,542.8205l-2561.2518,0l0,-414.9315c0,0 185.0922,-63.0563 328.0792,-56.8395c142.987,6.2168 337.4849,3.5524 427.1848,-15.098c89.6999,-18.6505 263.1546,-38.6979 420.0797,-63.0564c297.5195,-46.1821 672.2139,-45.294 883.6774,-45.294c285.0858,0 502.2307,52.3989 502.2307,52.3989Z" style="fill:#b99c7b;"/><path d="M-1.736,891.8508l0,548.1492l2561.2518,0l0,-223.9861c0,0 -369.0132,-2.6645 -522.6575,-16.8743c-153.6443,-14.2098 -214.0362,-1.7762 -297.5194,-23.091c-83.4832,-21.3148 -96.1287,-73.8639 -275.3167,-162.5256c-132.3747,-65.4986 -414.5156,-85.0956 -476.0311,-93.2524c-160.7493,-21.3149 -379.3058,-65.5514 -549.7451,-71.0494c-220.2532,-7.1049 -439.982,42.6296 -439.982,42.6296Z" style="fill:url(#_Linear3);"/><path d="M2559.5157,1110.3278l0,330.261l-2561.2518,0.2169l0,-316.268c0,0 399.1286,20.4266 560.7661,23.091c161.6374,2.6644 305.5126,-20.4268 448.4996,-58.6158c142.987,-38.189 303.7362,-59.5039 523.1014,-31.9722c219.3652,27.5317 257.5685,33.63 322.3868,51.5109c77.2664,21.3148 175.8474,29.3078 383.6669,27.5316c159.8949,-1.3666 322.8309,-25.7554 322.8309,-25.7554Z" style="fill:url(#_Linear4);"/><path d="M-1.736,1303.0494c0,0 314.8944,-69.3689 539.4512,-77.2662c113.4179,-3.9888 285.9805,2.4367 426.0695,26.319c135.2871,23.0636 252.0547,69.9411 329.7189,64.269c158.085,-11.5454 333.9324,-63.9445 613.6896,-39.0771c136.4804,12.1316 298.602,31.9134 425.225,52.6325c132.9285,21.7509 227.0976,44.1723 227.0976,44.1723l0,68.6919l-2561.2518,-2.7907l0,-136.9506Z" style="fill:url(#_Linear5);"/></g><g><path d="M1375.7976,116.5601c-8.0049,-4.11 -25.8899,-5.996 -8.4199,-14.9721c59.1191,-30.3753 165.1799,-1.4566 215.2417,-29.7353c31.6948,-17.9036 34.1643,-1.5866 39.3356,-1.2663c2.9577,0.1832 55.3819,-32.8898 122.2933,-19.0189c47.3495,9.8157 18.8757,41.0669 28.0279,46.0355c0.0586,0.0318 40.1593,3.9408 29.2294,15.1714c-4.9963,5.1338 -68.9184,19.3208 -24.5697,17.1703c44.8985,-2.1771 139.4439,-19.9103 101.2046,19.35c-14.5991,14.9889 69.1341,9.736 123.8725,28.7096c16.8675,5.8467 12.4134,16.5167 -4.8498,21.0098c-96.8228,25.2002 -339.7873,-8.4211 -462.79,3.5362c-138.0697,13.422 -163.1392,13.4693 -247.4571,11.561c-49.9849,-1.1313 -52.4842,-5.2301 -50.0661,-8.4947c5.0408,-6.8056 8.2796,3.8083 105.2094,-11.7543c98.0734,-15.7462 111.5401,3.3459 112.7829,-13.1253c1.6327,-21.6389 117.295,-2.4056 103.7604,-16.5307c-3.9407,-4.1125 -42.4811,2.9406 -45.7094,-11.1821c-1.3136,-5.7465 -40.314,-14.9802 -95.8634,-6.7688c-87.7164,12.9664 -94.5567,3.1251 -120.5593,13.2625c-17.2917,6.7414 -27.9604,10.9007 -231.892,-6.8073c-5.0638,-0.4397 -4.7786,-5.5466 2.5161,-6.1787c7.3602,-0.6378 7.2593,2.6646 92.3379,-1.2941c23.9623,-1.115 130.1946,1.624 60.074,-7.3859c-1.2034,-0.1546 -28.2046,-3.6241 -12.9864,-7.8329c96.4648,-26.6792 163.5895,-0.7866 168.7165,-11.6164c0.2747,-0.5803 0.2863,-1.2622 0.561,-1.8425Z" style="fill:#f4d9c0;"/><path d="M1024.7848,340.7058c0.6539,0.695 1.3078,1.3901 1.9617,2.0851c9.762,-0.3098 74.6927,-2.3702 122.0783,1.4074c8.681,0.6921 9.26,6.2726 4.993,6.2628c-9.9907,-0.023 -54.0261,-0.1245 -124.8264,3.7848c-75.1551,4.1497 -74.9095,-2.6656 -102.5369,-3.038c-114.7698,-1.5467 -114.6292,-8.9434 -175.0184,-5.5945c-67.2593,3.7299 -69.436,-5.5655 -77.1265,0.8362c-4.8669,4.0513 18.7091,4.0009 19.6114,4.5705c10.2529,6.473 -21.4548,3.238 -37.4828,4.796c-155.5483,15.1198 -346.1041,4.8103 -370.3905,0.9617c-5.2415,-0.8306 -5.2792,-5.3827 0.4553,-5.5826c3.8137,-0.133 30.4102,-1.0603 47.6452,-2.2817c2.6175,-0.1855 4.2537,-4.5089 -0.3496,-4.9495c-156.7525,-15.0028 -273.6269,-11.7198 -281.2786,-23.5695c-6.9058,-10.6945 21.3883,1.9252 56.7544,-16.3243c55.6853,-28.7345 79.1533,19.9326 109.4113,-13.3145c41.6175,-45.7288 76.8475,13.463 111.556,-30.7734c37.2571,-47.4845 86.6209,-0.046 106.1973,-1.7027c27.9497,-2.3652 29.2326,-3.8135 58.0848,14.2176c24.4423,15.2751 22.9993,-8.7805 44.4821,-10.9355c30.5112,-3.0606 20.7324,25.8141 39.931,24.2593c55.4409,-4.4899 55.4044,2.6989 67.6255,1.1305c11.7262,-1.5049 91.0134,-11.6805 147.3161,11.7037c22.5178,9.3523 -11.1153,10.7114 -12.341,12.43c-13.3034,18.6529 92.6876,-12.4273 184.6716,10.9578c46.2865,11.7674 48.388,1.3428 70.7591,10.8282c9.8064,4.1579 -3.1791,2.2212 -12.1834,7.8347Z" style="fill:#f4d9c0;"/><path d="M2446.3184,374.5718c1.0937,15.909 -29.4355,22.0907 -47.9583,24.1782c-57.9231,6.5278 -57.5998,9.9374 -106.2823,8.6345c-150.5421,-4.029 -160.104,-42.8109 -402.381,-8.0018c-87.4634,12.5663 -281.7981,-0.5788 -287.6783,-3.0115c-27.2336,-11.267 215.2473,-16.9937 217.0442,-18.3868c7.6071,-5.8975 -23.782,-3.9003 -44.0453,-10.0866c-22.3761,-6.8314 58.2242,-15.9853 87.0526,-19.4985c82.85,-10.0966 160.2163,17.2452 168.8655,4.5845c1.1857,-1.7357 -5.5115,-19.132 81.3198,-30.5608c41.5533,-5.4693 50.1513,25.1529 72.7131,14.5881c42.0995,-19.7136 49.0842,22.189 96.7177,-4.0325c4.6012,-2.5329 39.2203,-21.5901 65.1024,-8.4894c18.7259,9.4785 13.714,21.1579 13.5342,24.3106c-0.1664,2.9173 -0.3409,5.9776 34.1729,12.8975c1.2714,0.2549 51.0296,1.3375 51.8228,12.8744Z" style="fill:#f4d9c0;"/></g></g></g></g><defs><radialGradient id="_Radial2" cx="0" cy="0" r="1" gradientUnits="userSpaceOnUse" gradientTransform="matrix(1391.879776,0,0,1391.879776,1218.640528,555.478277)"><stop offset="0" style="stop-color:#f7ebdd;stop-opacity:1"/><stop offset="1" style="stop-color:#f3bf9c;stop-opacity:1"/></radialGradient><linearGradient id="_Linear3" x1="0" y1="0" x2="1" y2="0" gradientUnits="userSpaceOnUse" gradientTransform="matrix(-2526.195303,-212.091279,212.091279,-2526.195303,2536.232505,1356.354524)"><stop offset="0" style="stop-color:#978488;stop-opacity:1"/><stop offset="1" style="stop-color:#ceb8b0;stop-opacity:1"/></linearGradient><linearGradient id="_Linear4" x1="0" y1="0" x2="1" y2="0" gradientUnits="userSpaceOnUse" gradientTransform="matrix(-2021.193584,-1523.286209,1523.286209,-2021.193584,2284.832996,2653.206995)"><stop offset="0" style="stop-color:#e6926b;stop-opacity:1"/><stop offset="1" style="stop-color:#e9b293;stop-opacity:1"/></linearGradient><linearGradient id="_Linear5" x1="0" y1="0" x2="1" y2="0" gradientUnits="userSpaceOnUse" gradientTransform="matrix(2561.251762,0,0,218.108153,-1.736028,1333.736621)"><stop offset="0" style="stop-color:#c77660;stop-opacity:1"/><stop offset="1" style="stop-color:#c58d82;stop-opacity:1"/></linearGradient></defs></svg>