<?xml version="1.0" encoding="UTF-8" standalone="no"?><!DOCTYPE svg PUBLIC "-//W3C//DTD SVG 1.1//EN" "http://www.w3.org/Graphics/SVG/1.1/DTD/svg11.dtd"><svg width="100%" height="100%" viewBox="0 0 512 512" version="1.1" xmlns="http://www.w3.org/2000/svg" xmlns:xlink="http://www.w3.org/1999/xlink" xml:space="preserve" xmlns:serif="http://www.serif.com/" style="fill-rule:evenodd;clip-rule:evenodd;stroke-linejoin:round;stroke-miterlimit:2;"><g id="Layer2"><circle cx="256" cy="211.5375" r="119.625" style="fill:#fff;"/></g><g id="Layer1"><path id="Background" d="M253.5992,459.187c-12.0613,-7.9078 -53.8543,-49.6979 -65.1373,-61.6509c-4.9246,-5.217 -4.5218,-5.466 -9.3739,-10.6832l-0.9135,-1.1326c-0.204,-0.265 -0.9578,-1.2444 -2.7678,-3.1319c-15.8667,-19.2373 -15.6724,-19.3045 -17.0736,-20.9511c-10.9659,-12.8868 -35.9287,-48.7384 -48.5355,-79.2647c-5.4717,-11.4018 -10.4843,-29.5388 -10.5373,-29.8283c-1.6258,-8.8825 -22.6968,-77.8305 33.0431,-144.2125c1.2364,-1.4725 12.2196,-14.5526 16.4999,-17.4764c6.8617,-4.6871 67.9404,-62.0997 160.8595,-30.837l3.0006,1.0232l1.8334,0.466c2.0257,1.0961 1.9843,0.9399 4.0757,1.7436l0.9235,0.2581c1.3166,0.7271 4.7714,2.3943 5.1895,2.596l2.0096,0.9967c37.6687,18.9098 59.7115,43.0681 77.1138,79.2579c19.2977,44.1152 14.8744,79.529 10.1347,100.2487c-23.8916,104.4438 -144.2515,203.4986 -156.4533,213.1035c-0.1111,0.0988 -0.2754,0.2439 -0.3123,0.2715c-0.0504,0.0378 -0.6767,0.592 -0.8495,0.7189l-0.1084,0.0891c-0.0293,0.018 -0.2027,0.1756 -0.2202,0.1756c-0.0153,0 -0.721,-0.5337 -0.8966,-0.6575c-0.1552,-0.1095 -1.2514,-0.933 -1.5041,-1.1229Zm11.8703,-353.3435c-1.6592,-0.07 -3.3096,-0.2936 -4.9688,-0.3636c-44.9561,-1.8962 -74.4806,24.2756 -83.0291,33.9931c-32.095,36.4841 -32.3242,70.9643 -25.1188,102.0708c14.8858,47.2557 46.0968,68.6129 84.1221,77.0856l2.0968,0.3888c9.2018,1.1543 70.2211,8.8091 106.4848,-45.8202c25.9918,-39.1553 17.2408,-76.0184 16.1087,-82.6255c-15.1887,-63.3597 -65.7779,-82.0525 -95.6957,-84.729Zm52.1069,128.0615c-37.6131,3.0017 -15.6355,-53.6379 10.7964,-43.075c15.4024,6.1552 15.203,35.3827 -10.7964,43.075Zm-67.6566,-63.4121c-1.6566,40.7459 -49.5403,26.5227 -41.9955,-10.8932c4.7515,-23.5634 39.5188,-24.4581 41.9955,10.8932Zm34.5225,24.5953c-39.0825,0.1608 -20.5759,-64.7947 8.1693,-50.8219c17.6003,8.5554 17.4591,44.7775 -8.1693,50.8219Zm-83.0254,38.9215c-35.8139,1.7127 -36.7089,-52.7793 -5.0557,-43.0968c15.2072,4.6517 30.2255,34.5166 5.0557,43.0968Zm83.0856,52.038c-12.8949,-1.2773 -14.8579,-6.4707 -24.9752,-7.7447c-10.4844,-1.3203 -20.3011,4.6397 -23.1748,5.8371c-21.1207,8.8007 -38.8412,-15.5202 -26.7543,-32.5711c10.6927,-15.084 12.5172,-14.1005 18.9142,-32.0644c5.749,-16.1443 21.521,-20.0783 29.998,-19.1211c25.6777,2.8993 22.9404,23.2912 34.5928,39.4142c3.6354,5.0301 7.754,9.6748 8.0148,10.0062c10.0907,12.8183 5.6067,34.1034 -16.6154,36.2439Z" style="fill:#141414;"/></g></svg>